<svg width="823" height="700" viewBox="0 0 823 700" fill="none" xmlns="http://www.w3.org/2000/svg">
<path d="M352.475 263.618L550.589 104.381L551.508 106.718L354.092 265.394L352.475 263.618Z" fill="#232229"/>
<path d="M567.439 141.42C583.968 141.42 597.474 128.814 597.474 113.136C597.474 97.4578 583.968 84.8525 567.439 84.8525C550.911 84.8525 537.405 97.4578 537.405 113.136C537.405 128.814 550.911 141.42 567.439 141.42Z" fill="#093631" stroke="#03110F" stroke-width="2"/>
<path d="M547.052 174.551C545.793 174.553 544.544 174.321 543.378 173.868C542.211 173.415 541.146 172.748 540.247 171.904C539.347 171.06 538.63 170.054 538.139 168.942C537.649 167.829 537.395 166.635 537.395 165.427C537.395 164.219 537.649 163.024 538.139 161.912C538.63 160.8 539.347 159.794 540.247 158.949C541.146 158.105 542.211 157.439 543.378 156.986C544.544 156.533 545.793 156.301 547.052 156.302M547.052 174.551L812.154 157.302M547.052 174.551H812.153M547.052 174.551L812.154 157.302M547.052 156.302C547.052 156.302 547.052 156.302 547.052 156.302L547.051 157.302V156.302H547.052ZM547.052 156.302H812.153M812.153 156.302C812.153 156.302 812.153 156.302 812.153 156.302L812.154 157.302M812.153 156.302H812.154V157.302M812.153 156.302C813.412 156.301 814.661 156.533 815.828 156.986C816.995 157.439 818.059 158.105 818.958 158.949C819.858 159.794 820.575 160.8 821.066 161.912C821.556 163.024 821.81 164.219 821.81 165.427C821.81 166.635 821.556 167.829 821.066 168.942C820.575 170.054 819.858 171.06 818.958 171.904C818.059 172.748 816.995 173.415 815.828 173.868C814.661 174.321 813.412 174.553 812.153 174.551M812.153 174.551L812.154 173.551V174.551H812.153Z" fill="#093631" stroke="#03110F" stroke-width="2"/>
<path d="M547.051 206.655H812.154C814.693 206.655 817.139 205.708 818.953 204.004C820.768 202.298 821.8 199.971 821.8 197.53C821.8 195.089 820.768 192.762 818.953 191.056C817.139 189.352 814.693 188.405 812.154 188.405H547.051C544.512 188.405 542.066 189.352 540.253 191.056C538.437 192.762 537.405 195.089 537.405 197.53C537.405 199.971 538.437 202.298 540.253 204.004C542.066 205.708 544.512 206.655 547.051 206.655Z" fill="#093631" stroke="#03110F" stroke-width="2"/>
<path d="M547.051 238.759H661.967C664.506 238.759 666.952 237.811 668.766 236.108C670.581 234.402 671.613 232.075 671.613 229.634C671.613 227.193 670.581 224.866 668.766 223.16C666.952 221.456 664.506 220.509 661.967 220.509H547.051C544.512 220.509 542.066 221.456 540.253 223.16C538.437 224.866 537.405 227.193 537.405 229.634C537.405 232.075 538.437 234.402 540.253 236.108C542.066 237.811 544.512 238.759 547.051 238.759Z" fill="#093631" stroke="#03110F" stroke-width="2"/>
<path d="M558.368 323.188C569.852 323.188 579.269 314.426 579.269 303.487C579.269 292.549 569.852 283.787 558.368 283.787C546.884 283.787 537.467 292.549 537.467 303.487C537.467 314.426 546.884 323.188 558.368 323.188Z" stroke="#03110F" stroke-width="2"/>
<path d="M542.093 347.544L541.761 348.4C540.925 348.075 540.16 347.597 539.514 346.99C538.867 346.383 538.35 345.659 537.996 344.857C537.642 344.055 537.459 343.193 537.459 342.32C537.459 341.448 537.642 340.586 537.996 339.784C538.35 338.982 538.867 338.257 539.514 337.65C540.16 337.044 540.925 336.566 541.761 336.241C542.598 335.916 543.493 335.75 544.394 335.751M542.093 347.544L544.394 336.751M542.093 347.544L541.761 348.4C542.598 348.724 543.492 348.89 544.394 348.889H544.394V347.889L544.395 348.889L542.093 347.544ZM544.394 335.751C544.395 335.751 544.395 335.751 544.395 335.751L544.394 336.751M544.394 335.751H544.394V336.751M544.394 335.751H726.101M544.394 336.751H726.102M726.101 335.751C726.101 335.751 726.101 335.751 726.1 335.751L726.102 336.751M726.101 335.751H726.102V336.751M726.101 335.751C727.003 335.75 727.897 335.916 728.734 336.241C729.571 336.566 730.335 337.044 730.982 337.651C731.629 338.257 732.145 338.982 732.499 339.784C732.853 340.586 733.036 341.448 733.036 342.32C733.036 343.193 732.853 344.055 732.499 344.857C732.145 345.659 731.629 346.383 730.982 346.99C730.335 347.597 729.571 348.075 728.734 348.4C727.897 348.724 727.003 348.89 726.101 348.889H726.102V347.889L726.1 348.889L726.102 336.751" stroke="#03110F" stroke-width="2"/>
<path d="M589.524 374.882L589.526 374.882C591.342 374.88 593.094 374.201 594.395 372.976C595.698 371.75 596.442 370.074 596.442 368.313C596.442 366.552 595.698 364.876 594.395 363.65C593.094 362.426 591.342 361.747 589.526 361.744H589.524L544.394 361.744L544.392 361.744C542.576 361.747 540.824 362.426 539.523 363.65C538.22 364.876 537.476 366.552 537.476 368.313C537.476 370.074 538.22 371.75 539.523 372.976C540.824 374.201 542.576 374.88 544.392 374.882H544.394L589.524 374.882Z" stroke="#03110F" stroke-width="2"/>
<path d="M558.368 484.195C569.852 484.195 579.269 475.432 579.269 464.494C579.269 453.556 569.852 444.793 558.368 444.793C546.884 444.793 537.467 453.556 537.467 464.494C537.467 475.432 546.884 484.195 558.368 484.195Z" stroke="#03110F" stroke-width="2"/>
<path d="M730.982 498.657L730.298 499.386L544.394 508.896V509.896H544.394C544.395 509.896 544.395 509.896 544.395 509.896H726.1L726.102 508.896V509.896H726.101C727.003 509.897 727.897 509.731 728.734 509.406C729.571 509.082 730.335 508.604 730.982 507.997L730.297 507.267L730.982 507.997C731.629 507.39 732.145 506.665 732.499 505.864L731.584 505.46L732.499 505.864C732.853 505.062 733.036 504.199 733.036 503.327C733.036 502.455 732.853 501.592 732.499 500.79L731.584 501.194L732.499 500.79C732.145 499.989 731.629 499.264 730.982 498.657ZM726.101 496.758H544.394L726.102 497.758V496.758H726.101Z" stroke="#03110F" stroke-width="2"/>
<path d="M544.394 536.887H653.583C655.4 536.887 657.155 536.209 658.458 534.984C659.763 533.758 660.509 532.08 660.509 530.318C660.509 528.555 659.763 526.877 658.458 525.651C657.155 524.426 655.4 523.749 653.583 523.749H544.394C542.576 523.749 540.821 524.426 539.518 525.651C538.213 526.877 537.467 528.555 537.467 530.318C537.467 532.08 538.213 533.758 539.518 534.984C540.821 536.209 542.576 536.887 544.394 536.887Z" stroke="#03110F" stroke-width="2"/>
<path d="M544.394 563.877H623.16C624.977 563.877 626.732 563.199 628.035 561.974C629.34 560.748 630.086 559.071 630.086 557.308C630.086 555.545 629.34 553.868 628.035 552.641C626.732 551.417 624.977 550.739 623.16 550.739H544.394C542.576 550.739 540.821 551.417 539.518 552.641C538.213 553.868 537.467 555.545 537.467 557.308C537.467 559.071 538.213 560.748 539.518 561.974C540.821 563.199 542.576 563.877 544.394 563.877Z" stroke="#03110F" stroke-width="2"/>
<path d="M140.621 203.527L182.647 245.461L280.465 279.154L292.22 258.635L216.945 221.022C216.945 221.022 183.008 187.703 162.875 180.84L140.621 203.527Z" fill="#CE9578"/>
<path d="M290.618 284.404C298.628 284.404 305.121 278.302 305.121 270.775C305.121 263.247 298.628 257.146 290.618 257.146C282.607 257.146 276.114 263.247 276.114 270.775C276.114 278.302 282.607 284.404 290.618 284.404Z" fill="#CE9578"/>
<path d="M173.232 183.171L143.194 208.094L143.053 208.128C129.087 211.479 108.916 196 94.4547 182.424C89.6902 177.944 86.9135 171.931 86.6862 165.601C86.4588 159.271 88.7977 153.096 93.2299 148.324C96.5247 144.825 100.796 142.262 105.56 140.924C110.324 139.586 115.391 139.527 120.189 140.753L144.604 147.083L173.232 183.171Z" fill="#3F3D56"/>
<path d="M206.827 678.207L227.528 678.206L237.376 603.172L206.823 603.174L206.827 678.207Z" fill="#CE9578"/>
<path d="M201.545 671.856L207.372 671.856L230.121 663.162L242.314 671.854H242.316C249.207 671.855 255.815 674.427 260.687 679.006C265.559 683.584 268.297 689.794 268.297 696.269V697.062L201.547 697.064L201.545 671.856Z" fill="#171717"/>
<path d="M114.969 678.207L135.671 678.206L145.519 603.172L114.966 603.174L114.969 678.207Z" fill="#CE9578"/>
<path d="M109.688 671.856L115.515 671.856L138.264 663.162L150.457 671.854H150.459C157.349 671.855 163.958 674.427 168.83 679.006C173.702 683.584 176.44 689.794 176.44 696.269V697.062L109.689 697.064L109.688 671.856Z" fill="#171717"/>
<path d="M83.4028 355.008C83.4028 355.008 80.9855 382.267 87.0287 408.389C93.072 434.512 93.072 508.081 93.072 508.081L106.367 651.442L146.253 648.034L157.13 408.389L195.807 489.028L192.181 500.386L197.011 503.225C197.011 503.225 193.39 525.372 195.807 525.372C198.224 525.372 204.268 528.78 204.268 528.78L199.433 645.763L240.527 644.627L255.031 479.942L239.318 385.674L238.11 367.502L232.671 367.712L229.901 360.119L224.815 347.058L83.4028 355.008Z" fill="#171717"/>
<path d="M81.3137 360.734L81.0983 360.45C69.5937 345.315 86.8966 308.945 89.5063 303.673L78.5145 300.321L80.9897 280.55L82.1623 271.736L73.7614 263.841L73.7378 263.644L68.9032 223.893L61.8738 197.49C59.2252 187.509 59.4509 177.046 62.5278 167.173C65.6046 157.301 71.4218 148.377 79.382 141.315L95.6303 126.919L115.377 99.4629H147.221L158.14 118.843C168.725 121.142 178.117 126.858 184.679 134.995C191.241 143.132 194.558 153.174 194.051 163.373L191.576 214.201L201.264 277.486L201.27 288.939L212.172 300.324L209.791 311.509L218.088 314.851L221.752 330.915C223.268 332.795 233.275 345.334 233.275 348.762C233.275 349.277 232.871 349.774 232.003 350.326C225.183 354.666 187.489 363.513 170.806 357.239C153.035 350.562 82.3924 360.579 81.6807 360.681L81.3137 360.734Z" fill="#1B998B"/>
<path d="M342.459 698.648C342.459 698.825 342.423 699.001 342.351 699.164C342.28 699.328 342.174 699.477 342.042 699.602C341.909 699.728 341.751 699.828 341.577 699.896C341.404 699.964 341.217 699.999 341.029 700H2.24832C1.86686 700 1.50102 699.858 1.23129 699.604C0.96156 699.351 0.810028 699.007 0.810028 698.648C0.810028 698.29 0.96156 697.946 1.23129 697.693C1.50102 697.439 1.86686 697.297 2.24832 697.297H341.02C341.401 697.296 341.766 697.437 342.036 697.689C342.305 697.941 342.458 698.283 342.459 698.64V698.648Z" fill="#232229" fill-opacity="0.6"/>
<path d="M135.413 90.6002C158.704 90.6002 177.586 72.8572 177.586 50.9702C177.586 29.0832 158.704 11.3403 135.413 11.3403C112.121 11.3403 93.2394 29.0832 93.2394 50.9702C93.2394 72.8572 112.121 90.6002 135.413 90.6002Z" fill="#CE9578"/>
<path d="M139.453 91.2414C132.921 91.1787 126.408 90.5919 119.983 89.4873C113.622 88.1103 99.588 77.9129 95.7632 71.8886C92.9216 67.4127 91.216 60.4894 90.2853 55.47C89.0288 48.8271 89.2709 42.0103 90.9961 35.461C92.7214 28.9117 95.8912 22.7759 100.3 17.4509C102 15.2201 104.31 13.4624 106.985 12.3638C107.222 12.2834 107.465 12.213 107.71 12.1536C111.588 11.2947 115.105 9.3662 117.808 6.61568C118.333 6.05882 118.9 5.53821 119.504 5.05789C122.537 2.77629 126.101 1.20146 129.905 0.462168C136.051 -0.92481 144.843 0.813227 156.035 5.63242C161.658 8.05368 167.899 7.3782 172.709 6.51916C172.979 6.47698 173.256 6.50189 173.512 6.5914C173.768 6.68091 173.995 6.83192 174.17 7.02939C176.156 8.87421 178.811 9.94431 181.603 10.0246C183.31 10.1366 185.043 12.4048 187.132 15.3585C187.606 16.0289 188.159 16.8114 188.56 17.2889L188.64 16.3922L189.58 17.4176C191.057 19.0292 192.076 20.9657 192.542 23.047C193.008 25.1283 192.906 27.2865 192.246 29.3208C191.585 31.3551 190.387 33.1992 188.764 34.6814C187.141 36.1637 185.145 37.2358 182.962 37.798C181.231 38.1863 179.461 38.4075 177.682 38.458C176.603 38.5229 175.487 38.59 174.415 38.7381C170.972 39.3139 167.748 40.7188 165.055 42.8154C162.363 44.9121 160.296 47.6289 159.054 50.7007C158.761 51.4106 158.298 52.0476 157.702 52.5628C157.105 53.0779 156.39 53.4573 155.613 53.6717C154.835 53.8861 154.016 53.9297 153.217 53.7992C152.419 53.6686 151.663 53.3675 151.009 52.919C149.92 52.0787 148.63 51.4985 147.251 51.2277C145.872 50.9569 144.443 51.0036 143.087 51.3639C141.908 51.9432 140.976 52.8858 140.449 54.0336C139.811 55.3113 138.783 56.3814 137.495 57.1076C133.104 59.1019 132.55 68.3948 133.893 76.1854C135.188 83.6948 138.005 89.1729 140.743 89.5067C142.851 89.7635 143.089 89.9104 143.233 90.2654L143.361 90.5832L143.115 90.8715C142.876 91.1288 141.48 91.2414 139.453 91.2414Z" fill="#171717"/>
<path d="M346.341 391.699C387.586 391.699 421.022 360.28 421.022 321.522C421.022 282.764 387.586 251.344 346.341 251.344C305.096 251.344 271.66 282.764 271.66 321.522C271.66 360.28 305.096 391.699 346.341 391.699Z" fill="#093631"/>
<g filter="url(#filter0_i_113_81)">
<path d="M333.85 349.027C333.688 349.027 333.525 349.024 333.362 349.016C331.93 348.951 330.529 348.595 329.257 347.974C327.985 347.353 326.87 346.48 325.99 345.416L314.22 331.197C312.601 329.238 311.876 326.755 312.203 324.294C312.53 321.833 313.883 319.594 315.965 318.069L316.386 317.761C318.472 316.24 321.114 315.558 323.733 315.865C326.353 316.172 328.736 317.443 330.36 319.398C330.888 320.037 331.557 320.561 332.321 320.934C333.085 321.308 333.926 321.521 334.786 321.56C335.647 321.608 336.508 321.476 337.309 321.174C338.109 320.872 338.829 320.408 339.416 319.815L363.315 296.109C365.132 294.31 367.634 293.263 370.272 293.196C372.911 293.129 375.469 294.048 377.388 295.751L377.776 296.096C379.691 297.803 380.806 300.155 380.878 302.635C380.95 305.114 379.972 307.519 378.159 309.322L341.074 346.106C340.144 347.029 339.024 347.765 337.782 348.267C336.54 348.769 335.202 349.028 333.85 349.027Z" fill="#FCF9FF"/>
</g>
<path d="M149.167 204.984L178.463 255.582L263.948 311.543L280.869 294.506L218.247 240.142C218.247 240.142 194.442 199.809 176.828 188.361L149.167 204.984Z" fill="#CE9578"/>
<path d="M276.034 319.493C284.044 319.493 290.538 313.391 290.538 305.864C290.538 298.337 284.044 292.235 276.034 292.235C268.024 292.235 261.53 298.337 261.53 305.864C261.53 313.391 268.024 319.493 276.034 319.493Z" fill="#CE9578"/>
<path d="M151.804 211.729L133.381 170.179L140.044 147.218C141.37 142.715 144.009 138.65 147.665 135.482C151.32 132.315 155.845 130.171 160.729 129.293C167.357 128.145 174.203 129.406 179.88 132.819C185.558 136.233 189.645 141.545 191.314 147.681C196.36 166.296 200.235 190.495 190.043 200.072L189.94 200.169L151.804 211.729Z" fill="#1B998B"/>
<g filter="url(#filter1_i_113_81)">
<path d="M562.7 124.574C562.634 124.574 562.567 124.573 562.5 124.57C561.91 124.543 561.334 124.397 560.811 124.141C560.288 123.885 559.829 123.526 559.467 123.088L554.625 117.239C553.959 116.433 553.661 115.412 553.795 114.399C553.93 113.387 554.486 112.466 555.343 111.838L555.516 111.711C556.374 111.086 557.461 110.805 558.539 110.932C559.616 111.058 560.597 111.581 561.265 112.385C561.482 112.648 561.757 112.863 562.072 113.017C562.386 113.17 562.732 113.258 563.086 113.274C563.44 113.294 563.794 113.24 564.123 113.115C564.453 112.991 564.749 112.8 564.99 112.556L574.822 102.804C575.57 102.064 576.599 101.633 577.685 101.605C578.77 101.578 579.823 101.956 580.612 102.657L580.772 102.799C581.559 103.501 582.018 104.468 582.048 105.488C582.077 106.509 581.675 107.498 580.929 108.24L565.672 123.372C565.29 123.752 564.829 124.055 564.318 124.261C563.807 124.468 563.257 124.574 562.7 124.574Z" fill="#FCF9FF"/>
</g>
<defs>
<filter id="filter0_i_113_81" x="312.126" y="293.192" width="68.7556" height="59.835" filterUnits="userSpaceOnUse" color-interpolation-filters="sRGB">
<feFlood flood-opacity="0" result="BackgroundImageFix"/>
<feBlend mode="normal" in="SourceGraphic" in2="BackgroundImageFix" result="shape"/>
<feColorMatrix in="SourceAlpha" type="matrix" values="0 0 0 0 0 0 0 0 0 0 0 0 0 0 0 0 0 0 127 0" result="hardAlpha"/>
<feOffset dy="4"/>
<feGaussianBlur stdDeviation="2"/>
<feComposite in2="hardAlpha" operator="arithmetic" k2="-1" k3="1"/>
<feColorMatrix type="matrix" values="0 0 0 0 0 0 0 0 0 0 0 0 0 0 0 0 0 0 0.25 0"/>
<feBlend mode="normal" in2="shape" result="effect1_innerShadow_113_81"/>
</filter>
<filter id="filter1_i_113_81" x="553.764" y="101.604" width="28.2857" height="26.9702" filterUnits="userSpaceOnUse" color-interpolation-filters="sRGB">
<feFlood flood-opacity="0" result="BackgroundImageFix"/>
<feBlend mode="normal" in="SourceGraphic" in2="BackgroundImageFix" result="shape"/>
<feColorMatrix in="SourceAlpha" type="matrix" values="0 0 0 0 0 0 0 0 0 0 0 0 0 0 0 0 0 0 127 0" result="hardAlpha"/>
<feOffset dy="4"/>
<feGaussianBlur stdDeviation="2"/>
<feComposite in2="hardAlpha" operator="arithmetic" k2="-1" k3="1"/>
<feColorMatrix type="matrix" values="0 0 0 0 0 0 0 0 0 0 0 0 0 0 0 0 0 0 0.25 0"/>
<feBlend mode="normal" in2="shape" result="effect1_innerShadow_113_81"/>
</filter>
</defs>
</svg>
