<svg width="200" height="210" viewBox="0 0 200 210" fill="none" xmlns="http://www.w3.org/2000/svg">
<path d="M178.049 85.0884L178.018 85.7596L178.328 86.3558L197.041 122.351C198.113 124.42 197.267 127.082 194.623 128.25C194.622 128.25 194.622 128.25 194.622 128.25L180.343 134.543L180.341 134.544C176.867 136.079 174.48 139.375 174.48 143.163V164.33C174.48 166.615 172.361 168.873 169.226 168.873H130.922C125.489 168.873 120.661 172.923 120.661 178.416V202.962C120.661 204.365 119.883 205.792 118.4 206.688C116.892 207.589 114.953 207.756 113.279 207.109L113.275 207.108L38.4678 178.307L38.4641 178.306C36.4648 177.54 35.3452 175.842 35.3452 174.161V145.187V143.937L34.3447 143.187C14.8445 128.569 2.5 106.54 2.5 81.96C2.5 38.2997 41.5906 2.5 90.3225 2.5C139.054 2.5 178.138 38.2995 178.138 81.96C178.138 82.9824 178.098 84.0178 178.049 85.0884ZM26.4045 81.96C26.4045 114.351 55.2573 140.196 90.3225 140.196C125.388 140.196 154.233 114.351 154.233 81.96C154.233 49.5757 125.388 23.7305 90.3225 23.7305C55.2575 23.7305 26.4045 49.5754 26.4045 81.96Z" fill="#1B998B" stroke="#093631" stroke-width="5"/>
<path d="M88.9126 95.9665C84.4396 95.9665 80.2134 94.3828 77.026 91.4903C73.8347 88.5942 72.0581 84.7155 72.0581 80.5792C72.0581 76.4369 73.8342 72.5585 77.0251 69.6623L88.9126 95.9665ZM88.9126 95.9665C93.3857 95.9665 97.6119 94.3828 100.799 91.4903C103.991 88.5942 105.767 84.7155 105.767 80.5792C105.767 76.4368 103.991 72.5582 100.8 69.662M88.9126 95.9665L77.0255 69.6619C80.214 66.7617 84.4408 65.1853 88.9126 65.1853C93.3845 65.1853 97.6114 66.7622 100.8 69.662M100.8 69.662C100.8 69.6621 100.8 69.6622 100.8 69.6623L100.128 70.4012L100.799 69.6615C100.799 69.6617 100.8 69.6618 100.8 69.662ZM132.825 85.8938L132.824 85.8939L122.775 86.6051L122.774 86.6052C121.822 86.6735 120.916 87.2291 120.508 88.1387C120.508 88.1406 120.507 88.1424 120.506 88.1443L117.198 95.3768C117.198 95.3769 117.198 95.377 117.198 95.3771C116.783 96.2849 116.976 97.3388 117.654 98.0603L117.654 98.0613L124.208 105.021L124.21 105.023C124.9 105.751 124.864 106.81 124.097 107.502L124.095 107.504L118.735 112.368L118.735 112.368C117.918 113.109 116.581 113.158 115.704 112.479L108.043 106.526L108.035 106.52C107.281 105.946 106.232 105.789 105.329 106.137C105.327 106.138 105.326 106.139 105.324 106.139L97.3611 109.132C97.3598 109.133 97.3585 109.133 97.3572 109.134C96.4388 109.473 95.7497 110.286 95.6639 111.28L95.6638 111.281L94.8872 120.402C94.8872 120.403 94.8871 120.404 94.8871 120.404C94.8049 121.311 93.9274 122.151 92.7055 122.151H85.1211C83.8968 122.151 83.0229 121.309 82.9465 120.407L82.9465 120.407L82.1696 111.281L82.1694 111.28C82.083 110.279 81.381 109.47 80.4693 109.134C80.4681 109.133 80.4668 109.133 80.4655 109.132L72.5017 106.136C71.5872 105.79 70.5563 105.945 69.7965 106.515L69.7897 106.521L69.7829 106.526L62.124 112.477C62.1237 112.477 62.1234 112.477 62.1231 112.478C61.236 113.161 59.9004 113.107 59.0936 112.37L59.0915 112.368L53.7316 107.504L53.7315 107.504C52.9656 106.809 52.9291 105.748 53.616 105.023L53.6181 105.021L60.1716 98.0613L60.1722 98.0607C60.8423 97.3478 61.0562 96.2929 60.6265 95.3732L57.3267 88.1436C57.3261 88.1422 57.3254 88.1407 57.3248 88.1392C56.914 87.2239 55.9966 86.6722 55.0429 86.6051L44.9944 85.8939L44.9936 85.8939C43.7849 85.8093 43 84.9245 43 84.0138V77.1372C43 76.2274 43.7848 75.3405 44.9964 75.2508C44.9967 75.2507 44.997 75.2507 44.9973 75.2507L55.0333 74.5404C55.0351 74.5403 55.0369 74.5401 55.0387 74.54C55.9979 74.48 56.9152 73.9261 57.325 73.0117C57.3256 73.0102 57.3263 73.0087 57.327 73.0071L60.6257 65.7799C60.6262 65.7787 60.6268 65.7775 60.6273 65.7764C61.0557 64.8509 60.8415 63.8068 60.1773 63.0896L60.1773 63.0896L60.1713 63.0832L53.6178 56.1299L53.616 56.128C52.9292 55.403 52.9655 54.3423 53.7316 53.6471L53.7321 53.6467L59.0915 48.7766C59.8984 48.0443 61.2351 47.9905 62.1227 48.6734C62.1231 48.6737 62.1235 48.674 62.124 48.6743L69.7834 54.6194L69.7833 54.6194L69.7901 54.6246C70.5523 55.2059 71.5823 55.3586 72.4924 55.0246L72.4924 55.0246L72.5006 55.0215L80.4658 52.0189C80.4672 52.0183 80.4687 52.0178 80.4702 52.0172C81.3829 51.6802 82.0837 50.8695 82.1695 49.8643L82.1695 49.8641L82.9465 40.7509L82.9466 40.75C83.0236 39.8357 83.8967 39 85.1211 39H92.7055C93.9283 39 94.805 39.8346 94.8871 40.7535C94.8871 40.7538 94.8872 40.7541 94.8872 40.7544L95.6638 49.8641L95.6639 49.8651C95.7498 50.862 96.4354 51.6774 97.3566 52.0173C97.3581 52.0179 97.3596 52.0184 97.3611 52.019L105.333 55.0216L105.333 55.0217C106.233 55.3603 107.283 55.2067 108.041 54.6204L108.043 54.6194L115.704 48.6726C116.581 47.9931 117.919 48.0415 118.735 48.7773C118.736 48.7777 118.736 48.7781 118.737 48.7785L124.094 53.6467L124.097 53.6492C124.864 54.3409 124.9 55.4002 124.21 56.128L124.208 56.1299L117.655 63.0832L117.649 63.0896C116.977 63.8153 116.784 64.8576 117.196 65.7697L117.198 65.7743L120.506 73.0071C120.507 73.009 120.508 73.0108 120.508 73.0127C120.915 73.92 121.82 74.4793 122.779 74.54C122.781 74.5401 122.783 74.5402 122.784 74.5403L132.821 75.2507C132.822 75.2508 132.823 75.2508 132.823 75.2508C134.042 75.3411 134.825 76.2285 134.825 77.1372V84.0138C134.825 84.9235 134.042 85.8093 132.825 85.8938Z" fill="#1B998B" stroke="#656176" stroke-width="2"/>
</svg>
